<?xml version="1.0" standalone="no"?>
<!DOCTYPE svg PUBLIC "-//W3C//DTD SVG 20010904//EN"
 "http://www.w3.org/TR/2001/REC-SVG-20010904/DTD/svg10.dtd">
<svg version="1.0" xmlns="http://www.w3.org/2000/svg"
 width="130.000000pt" height="130.000000pt" viewBox="0 0 130.000000 130.000000"
 preserveAspectRatio="xMidYMid meet">
<metadata>
Created by potrace 1.14, written by Peter Selinger 2001-2017
</metadata>
<g transform="translate(0.000000,130.000000) scale(0.100000,-0.100000)"
fill="#000000" stroke="none">
<path d="M383 1097 c-20 -4 -50 -20 -66 -35 -27 -26 -29 -30 -24 -91 4 -47 1
-68 -9 -78 -21 -22 -16 -56 12 -76 23 -17 27 -18 43 -3 23 21 65 20 98 -1 25
-16 26 -16 43 5 14 17 25 20 52 15 38 -6 80 10 77 30 -3 26 2 36 19 39 14 3
17 15 18 65 1 37 -3 66 -10 72 -16 13 -107 37 -133 35 -13 -1 -41 -2 -63 -3
-33 -1 -43 -6 -52 -26 -8 -19 -14 -22 -20 -13 -5 8 -8 2 -9 -17 0 -16 -4 -39
-9 -50 -8 -18 -9 -18 -10 5 l-2 25 -7 -24 c-12 -45 -31 -36 -31 14 0 54 29 88
83 99 17 4 146 6 286 6 259 -1 294 -6 318 -42 4 -7 11 -71 14 -143 l5 -130 2
120 c1 66 -1 130 -4 142 -4 13 -22 33 -42 45 -35 21 -46 22 -288 23 -139 0
-270 -3 -291 -8z"/>
<path d="M748 1000 c23 -21 42 -41 42 -43 0 -11 -57 -14 -73 -5 -22 12 -51 -7
-30 -20 6 -4 13 -21 15 -37 l4 -30 11 26 c10 24 17 27 55 25 l43 -1 -3 -45
c-2 -24 -8 -48 -15 -52 -8 -5 -3 -8 11 -8 17 0 27 9 38 35 8 20 25 40 37 45
17 7 18 9 5 9 -35 2 -6 29 38 36 55 8 54 29 -2 32 -21 1 -45 2 -52 2 -7 1 -10
6 -6 13 5 7 2 9 -9 5 -9 -3 -39 7 -69 23 -74 41 -91 37 -40 -10z"/>
<path d="M636 875 c4 -8 8 -15 10 -15 2 0 4 7 4 15 0 8 -4 15 -10 15 -5 0 -7
-7 -4 -15z"/>
<path d="M605 819 c-34 -10 -87 -53 -92 -74 -16 -64 -15 -73 6 -80 12 -3 29
-26 41 -52 23 -52 25 -67 8 -57 -7 4 -8 3 -4 -4 4 -7 14 -12 23 -12 9 0 13 3
10 7 -4 3 -1 13 6 22 28 32 27 50 -1 68 -52 34 -61 66 -21 78 12 4 19 15 18
28 -4 40 1 67 11 67 6 0 8 -10 5 -23 -5 -18 -2 -23 14 -23 12 0 21 6 21 12 0
7 6 15 13 17 7 4 3 8 -10 12 -13 4 -20 11 -17 16 3 5 4 9 2 8 -2 0 -16 -5 -33
-10z m-30 -59 c-3 -5 -11 -10 -16 -10 -6 0 -7 5 -4 10 3 6 11 10 16 10 6 0 7
-4 4 -10z"/>
<path d="M710 816 c0 -2 8 -10 18 -17 15 -13 16 -12 3 4 -13 16 -21 21 -21 13z"/>
<path d="M290 735 c0 -32 2 -56 5 -53 7 7 9 97 2 105 -4 3 -7 -20 -7 -52z"/>
<path d="M441 677 c-2 -132 12 -168 75 -201 32 -17 58 -21 139 -21 88 0 105 3
144 25 44 25 49 36 54 108 0 9 26 12 94 12 51 0 93 3 93 8 0 6 -158 9 -192 3
-5 0 -8 -16 -8 -33 0 -62 -33 -80 -149 -85 -46 -1 -87 -6 -90 -9 -3 -4 39 -4
94 -1 77 4 95 3 80 -6 -35 -19 -174 -19 -230 0 -79 28 -92 57 -91 193 1 62 -1
113 -5 115 -3 3 -7 -46 -8 -108z m385 -172 c-11 -8 -25 -15 -30 -15 -6 1 0 7
14 15 32 19 40 18 16 0z"/>
<path d="M690 775 c-5 -6 -7 -15 -3 -18 3 -4 -2 -7 -11 -7 -11 0 -16 -5 -13
-14 3 -7 -1 -26 -9 -41 -16 -32 -18 -54 -4 -56 6 -1 16 -2 23 -3 6 0 13 -12
15 -26 2 -14 5 -31 8 -39 7 -20 29 2 55 55 16 33 24 42 34 34 16 -13 9 63 -9
98 -15 28 -68 38 -86 17z"/>
<path d="M885 770 c3 -5 0 -10 -8 -10 -7 0 -19 -12 -25 -26 -10 -20 -10 -24 0
-18 10 6 10 4 2 -7 -5 -8 -10 -27 -9 -44 l1 -30 94 -3 95 -3 22 48 c12 26 20
50 18 53 -2 4 -25 6 -50 5 -32 -2 -45 1 -45 11 0 8 -7 14 -16 14 -8 0 -12 5
-9 10 4 6 -10 10 -35 10 -25 0 -39 -4 -35 -10z"/>
<path d="M403 640 c-1 -133 7 -165 49 -194 12 -9 18 -16 13 -16 -22 0 -76 48
-91 82 -26 58 -22 154 9 198 10 13 9 13 -5 0 -24 -23 -36 -71 -32 -133 4 -93
50 -147 141 -167 18 -4 33 -4 35 1 2 5 74 10 160 11 87 2 158 7 158 11 0 4
-78 7 -172 5 -242 -4 -249 1 -259 201 l-6 126 0 -125z"/>
<path d="M313 677 c-29 -29 -53 -89 -52 -129 0 -26 3 -20 13 25 9 41 22 67 46
92 36 38 30 48 -7 12z"/>
<path d="M520 596 c0 -2 8 -10 18 -17 15 -13 16 -12 3 4 -13 16 -21 21 -21 13z"/>
<path d="M747 581 c-4 -17 -3 -21 5 -13 5 5 8 16 6 23 -3 8 -7 3 -11 -10z"/>
<path d="M1002 534 c-3 -75 -18 -108 -56 -127 -51 -24 -546 -19 -593 6 -18 10
-33 19 -33 20 0 1 -7 20 -15 42 -10 27 -14 33 -15 18 0 -40 24 -76 65 -94 34
-15 72 -18 298 -19 223 0 263 2 294 16 45 22 65 68 60 137 l-3 52 -2 -51z"/>
<path d="M575 490 c3 -5 8 -10 11 -10 2 0 4 5 4 10 0 6 -5 10 -11 10 -5 0 -7
-4 -4 -10z"/>
<path d="M237 323 c-2 -5 -4 -23 -3 -41 1 -47 21 -40 21 8 0 37 -8 51 -18 33z"/>
<path d="M270 284 c0 -32 4 -44 13 -41 6 2 11 10 10 16 -4 16 12 14 27 -4 21
-26 30 -17 30 30 0 25 -4 45 -10 45 -5 0 -10 -7 -10 -15 0 -8 -4 -15 -9 -15
-5 0 -11 7 -15 15 -3 8 -12 15 -21 15 -11 0 -15 -11 -15 -46z"/>
<path d="M360 283 c0 -31 4 -43 13 -40 6 2 12 9 12 16 0 6 7 16 15 21 10 7 11
10 3 10 -7 0 -13 5 -13 10 0 6 9 10 19 10 16 0 19 -6 17 -35 -2 -24 1 -35 10
-35 10 0 14 13 14 43 l0 43 -45 0 -45 1 0 -44z"/>
<path d="M460 322 c0 -4 6 -14 12 -20 10 -10 10 -17 0 -33 -16 -25 -8 -37 12
-20 10 8 16 9 21 1 3 -5 13 -10 21 -10 13 0 13 2 0 22 -11 16 -12 26 -5 40 13
25 4 35 -16 18 -10 -8 -15 -9 -15 -1 0 6 -7 11 -15 11 -8 0 -15 -4 -15 -8z"/>
<path d="M571 290 c-1 -39 2 -46 19 -47 11 -1 20 2 20 8 0 5 -6 8 -12 7 -8 -2
-15 13 -19 37 l-6 40 -2 -45z"/>
<path d="M637 308 c-23 -12 -22 -45 2 -57 26 -14 56 9 47 36 -8 26 -27 34 -49
21z m33 -26 c0 -10 -3 -22 -7 -25 -10 -11 -32 13 -26 29 8 20 33 17 33 -4z"/>
<path d="M711 307 c-13 -13 -15 -57 -2 -57 5 0 7 9 4 20 -4 14 1 22 17 28 18
7 20 10 8 15 -9 3 -21 0 -27 -6z"/>
<path d="M770 276 c0 -22 4 -35 10 -31 6 3 8 18 6 32 -8 40 -16 40 -16 -1z"/>
<path d="M800 295 c0 -8 7 -15 15 -15 21 0 19 -20 -2 -21 -15 0 -15 -2 2 -8
13 -6 23 -4 28 5 10 18 1 34 -21 35 -14 0 -13 2 3 9 19 8 19 9 -2 9 -14 1 -23
-5 -23 -14z"/>
<path d="M868 303 c6 -2 12 -19 12 -36 0 -22 3 -28 9 -18 5 7 8 21 6 30 -1 9
5 19 14 23 10 4 2 7 -19 7 -19 -1 -29 -3 -22 -6z"/>
<path d="M930 276 c0 -22 4 -35 10 -31 6 3 8 18 6 32 -8 40 -16 40 -16 -1z"/>
<path d="M967 303 c-14 -13 -7 -43 12 -53 25 -13 31 -13 31 2 0 6 -3 8 -7 5
-7 -8 -33 11 -33 25 0 5 10 13 23 18 21 8 21 9 1 9 -11 1 -24 -2 -27 -6z"/>
<path d="M1030 296 c0 -8 7 -16 15 -20 21 -8 19 -27 -2 -20 -14 5 -15 4 -4 -4
15 -11 41 -5 41 9 0 4 -10 14 -22 21 l-23 12 25 7 25 7 -27 1 c-18 1 -28 -4
-28 -13z"/>
<path d="M733 261 c-1 -14 3 -18 13 -14 17 6 19 33 1 33 -7 0 -13 -9 -14 -19z"/>
<path d="M676 193 c-6 -14 -5 -15 5 -6 7 7 10 15 7 18 -3 3 -9 -2 -12 -12z"/>
<path d="M566 192 c-3 -5 1 -9 9 -9 8 0 12 4 9 9 -3 4 -7 8 -9 8 -2 0 -6 -4
-9 -8z"/>
<path d="M620 190 c0 -5 7 -7 15 -4 8 4 15 8 15 10 0 2 -7 4 -15 4 -8 0 -15
-4 -15 -10z"/>
<path d="M755 190 c-3 -5 -1 -10 4 -10 6 0 11 5 11 10 0 6 -2 10 -4 10 -3 0
-8 -4 -11 -10z"/>
</g>
</svg>
