<svg width="53" height="70" viewBox="0 0 53 70" fill="none" xmlns="http://www.w3.org/2000/svg">
<path d="M24.8691 35.0137C24.1855 32.8262 24.1992 28.6016 24.5957 28.6016C25.7441 28.6016 25.6348 33.6465 24.8691 35.0137ZM24.6367 41.4668C23.584 44.2285 22.2715 47.3867 20.7539 50.0391C23.2559 49.082 26.0859 47.6875 29.3535 47.0449C27.6172 45.7324 25.9492 43.8457 24.6367 41.4668ZM11.7715 58.5293C11.7715 58.6387 13.5762 57.791 16.543 53.0332C15.627 53.8945 12.5645 56.3828 11.7715 58.5293ZM33.9062 21.875H52.5V66.7188C52.5 68.5371 51.0371 70 49.2188 70H3.28125C1.46289 70 0 68.5371 0 66.7188V3.28125C0 1.46289 1.46289 0 3.28125 0H30.625V18.5938C30.625 20.3984 32.1016 21.875 33.9062 21.875ZM32.8125 45.3633C30.0781 43.6953 28.2598 41.3984 26.9746 38.0078C27.5898 35.4785 28.5605 31.6367 27.8223 29.2305C27.1797 25.2109 22.0254 25.6074 21.2871 28.3008C20.6035 30.8027 21.2324 34.3301 22.3945 38.8281C20.8086 42.6016 18.4707 47.6602 16.8164 50.5586C16.8027 50.5586 16.8027 50.5723 16.7891 50.5723C13.084 52.4727 6.72656 56.6562 9.33789 59.8691C10.1035 60.8125 11.5254 61.2363 12.2773 61.2363C14.7246 61.2363 17.1582 58.7754 20.6309 52.7871C24.1582 51.625 28.0273 50.1758 31.4316 49.6152C34.3984 51.2285 37.8711 52.2812 40.1816 52.2812C44.1738 52.2812 44.4473 47.9062 42.875 46.3477C40.9746 44.4883 35.4512 45.0215 32.8125 45.3633ZM51.543 14.3555L38.1445 0.957031C37.5293 0.341797 36.6953 0 35.8203 0H35V17.5H52.5V16.666C52.5 15.8047 52.1582 14.9707 51.543 14.3555ZM41.4121 49.2598C41.9727 48.8906 41.0703 47.6328 35.5605 48.0293C40.6328 50.1895 41.4121 49.2598 41.4121 49.2598Z" fill="#F3AF00"/>
</svg>
