<svg width="52" height="65" viewBox="0 0 52 65" fill="none" xmlns="http://www.w3.org/2000/svg">
<path d="M26.6059 40.7939C24.6007 40.7939 23.4307 42.7017 23.4307 45.2562C23.4307 47.8269 24.6364 49.6437 26.6254 49.6437C28.6307 49.6437 29.7812 47.7327 29.7812 45.1782C29.7812 42.8187 28.6502 40.7939 26.6059 40.7939Z" fill="#19E377"/>
<path d="M32.5 0H6.5C4.77609 0 3.12279 0.684819 1.90381 1.90381C0.684819 3.12279 0 4.77609 0 6.5V58.5C0 60.2239 0.684819 61.8772 1.90381 63.0962C3.12279 64.3152 4.77609 65 6.5 65H45.5C47.2239 65 48.8772 64.3152 50.0962 63.0962C51.3152 61.8772 52 60.2239 52 58.5V19.5L32.5 0ZM16.7537 50.2255C15.3692 51.376 13.2665 51.9188 10.6957 51.9188C9.152 51.9188 8.06325 51.8213 7.32225 51.7238V38.818C8.65141 38.6266 9.99318 38.5364 11.336 38.5482C13.832 38.5482 15.4505 38.9967 16.7147 39.9523C18.0797 40.9663 18.9377 42.5847 18.9377 44.8988C18.9377 47.4175 18.0212 49.153 16.7537 50.2255ZM26.4713 52C22.5713 52 20.293 49.0555 20.293 45.3115C20.293 41.3758 22.8053 38.4345 26.6858 38.4345C30.719 38.4345 32.9225 41.4538 32.9225 45.0807C32.9193 49.387 30.3063 52 26.4713 52ZM41.6 49.5235C42.4937 49.5235 43.4883 49.3253 44.0765 49.0945L44.525 51.4118C43.979 51.6847 42.7505 51.9772 41.1548 51.9772C36.6145 51.9772 34.2745 49.153 34.2745 45.409C34.2745 40.9272 37.4692 38.4345 41.4473 38.4345C42.9878 38.4345 44.1545 38.7465 44.681 39.0195L44.0765 41.379C43.2852 41.052 42.4367 40.8862 41.5805 40.8915C39.221 40.8915 37.388 42.315 37.388 45.24C37.388 47.8693 38.948 49.5235 41.6 49.5235ZM32.5 22.75H29.25V6.5L45.5 22.75H32.5Z" fill="#19E377"/>
<path d="M11.6479 40.8301C10.9882 40.8301 10.5592 40.8886 10.3057 40.9471V49.5433C10.5592 49.6018 10.9687 49.6018 11.3359 49.6018C14.0269 49.6213 15.7787 48.1426 15.7787 45.0031C15.7982 42.2731 14.2024 40.8301 11.6479 40.8301Z" fill="#19E377"/>
</svg>
