<svg width="100" height="100" viewBox="0 0 100 100" fill="none" xmlns="http://www.w3.org/2000/svg">
<rect width="100" height="100" rx="16" fill="#0013BF"/>
<path d="M50.5 27C40.8356 27 33 34.8356 33 44.5C33 48.3055 34.2476 51.7975 36.3214 54.6573C36.3585 54.7258 36.3644 54.8024 36.4067 54.868L48.0733 72.368C48.6144 73.1796 49.5258 73.6667 50.5 73.6667C51.4742 73.6667 52.3856 73.1796 52.9267 72.368L64.5933 54.868C64.6364 54.8024 64.6415 54.7258 64.6786 54.6573C66.7524 51.7975 68 48.3055 68 44.5C68 34.8356 60.1644 27 50.5 27ZM50.5 50.3333C47.2785 50.3333 44.6667 47.7215 44.6667 44.5C44.6667 41.2785 47.2785 38.6667 50.5 38.6667C53.7215 38.6667 56.3333 41.2785 56.3333 44.5C56.3333 47.7215 53.7215 50.3333 50.5 50.3333Z" fill="white"/>
</svg>
