<svg width="100" height="100" viewBox="0 0 100 100" fill="none" xmlns="http://www.w3.org/2000/svg">
<rect width="100" height="100" rx="16" fill="#F14800"/>
<path d="M72.7826 44.5573C73.138 44.2747 73.6667 44.5391 73.6667 44.9857V63.625C73.6667 66.0404 71.707 68 69.2917 68H31.375C28.9596 68 27 66.0404 27 63.625V44.9948C27 44.5391 27.5195 44.2839 27.8841 44.5664C29.9258 46.1523 32.6328 48.1667 41.9297 54.9206C43.8529 56.3242 47.0977 59.2773 50.3333 59.2591C53.5872 59.2865 56.8958 56.2695 58.7461 54.9206C68.043 48.1667 70.7409 46.1432 72.7826 44.5573ZM50.3333 56.3333C52.4479 56.3698 55.4922 53.6719 57.0234 52.5599C69.1185 43.7826 70.0391 43.0169 72.8281 40.8294C73.3568 40.4193 73.6667 39.7812 73.6667 39.1068V37.375C73.6667 34.9596 71.707 33 69.2917 33H31.375C28.9596 33 27 34.9596 27 37.375V39.1068C27 39.7812 27.3099 40.4102 27.8385 40.8294C30.6276 43.0078 31.5482 43.7826 43.6432 52.5599C45.1745 53.6719 48.2188 56.3698 50.3333 56.3333Z" fill="white"/>
</svg>
