<svg width="100" height="100" viewBox="0 0 100 100" fill="none" xmlns="http://www.w3.org/2000/svg">
<rect width="100" height="100" rx="16" fill="#F3AF00"/>
<path d="M68.8593 57.8993L60.1091 54.3305C59.7353 54.1789 59.3199 54.1469 58.9254 54.2394C58.5308 54.332 58.1786 54.5439 57.9216 54.8435L54.0465 59.3491C47.965 56.6203 43.0707 51.9626 40.2033 46.175L44.9378 42.4872C45.2531 42.2431 45.4764 41.9078 45.5736 41.5322C45.6709 41.1566 45.6369 40.761 45.4768 40.4054L41.7268 32.0781C41.5511 31.6948 41.2403 31.3818 40.8481 31.1932C40.4559 31.0045 40.0068 30.952 39.5783 31.0447L31.4532 32.8291C31.04 32.9199 30.6714 33.1413 30.4075 33.4571C30.1435 33.773 29.9999 34.1646 30 34.5681C30 53.639 46.2425 69.0667 66.2506 69.0667C66.6748 69.067 67.0865 68.9303 67.4186 68.6792C67.7506 68.428 67.9833 68.0771 68.0788 67.6838L69.9538 59.9513C70.0506 59.5415 69.9942 59.1125 69.7945 58.7379C69.5947 58.3634 69.264 58.0668 68.8593 57.8993Z" fill="white"/>
</svg>
